<svg xmlns="http://www.w3.org/2000/svg" viewBox="0 0 1000 666"><path fill="#567053" d="M0 0h1000v664H0z"/><g fill-opacity=".5"><path fill="#91e8ff" d="M-60.5 17.6l820.3-78.1-58.6 261.7z"/><path fill="#0e0b06" d="M1025.4 365.2l-1086 105.5L1060.6 41z"/><path fill="#9dbf4c" d="M533.2 724.6L377 373l683.5 78.2z"/><path fill="#84bdff" d="M755.9 25.4l-804.7-86 289 222.7z"/><path fill="#000010" d="M361.3 451.2L80.1 560.5l293-386.7z"/><path fill="#08190d" d="M9.8-45l-70.3 426 164-66.4z"/><path fill="#91ab53" d="M-60.5 361.3l230.4 199.2 7.8-218.7z"/><path fill="#778261" d="M533.2 298.8l230.5-179.7 23.4 172z"/><path fill="#3a550c" d="M384.8 474.6l39 183.6-484.3 11.7z"/><path fill="#958847" d="M267.6 295l375-113.4L205 127z"/><path fill="#5aacff" d="M373-60.5l383 3.9-93.8 246z"/><path fill="#86a438" d="M693.4 662.1l281.2-269.5 86 265.6z"/><path fill="#3d5a30" d="M392.6 72.3L357.4 377l250 66.4z"/><path fill="#171414" d="M830 37.1l215 117.2-277.4 269.5z"/><path fill="#537dac" d="M-56.6 56.6l230.4 187.5-27.3-195.3z"/><path fill="#244607" d="M158.2 412.1L130.9 627l-148.5-11.8z"/><path fill="#a4c271" d="M439.5 439.5l347.6 7.8-382.8 125z"/><path fill="#c7ab88" d="M291 494.1l-125 125-19.5-66.4z"/><path fill="#000a30" d="M177.7 548.8l230.5-211-230.5-39z"/><path fill="#658235" d="M642.6 220.7L490.2 76.2 545 263.7z"/></g></svg>