
<svg xmlns="http://www.w3.org/2000/svg" viewBox="0 0 580 986"><path fill="#aeadaa" d="M0 0h577v986H0z"/><g fill-opacity=".5"><path fill="#353031" d="M321.6 903.2L55.8 1014.9l223.4-577.7z"/><path fill="#030000" d="M410.2 941.7l-15.4-219.5 100.1 265.7z"/><path fill="#d3d3cf" d="M595 980.2L575.9-59.7 90.5 44.3z"/><path fill="#2d2c33" d="M260 533.4l7.7-204-123.3 65.4z"/><path fill="#3c3738" d="M9.6 849.3l23.1 196.4L237 860.8z"/><path fill="#d8d5d1" d="M86.7 52L-9.6 884l227.2-208z"/><path fill="#f3f3ed" d="M279.2 860.8l-73.1-77L271.5 649z"/><path fill="#020005" d="M275.4 475.7l77 50-23-42.3z"/><path d="M271.5 726l42.4-3.8-23.1 127z"/><path fill="#d0ceca" d="M606.6 510.3l-416-546.9 88.6 512.3z"/><path fill="#fffff8" d="M213.8 479.5l-27 65.5 104-80.9z"/><path d="M190.7 772.2l-30.9 119.4 46.3-7.7z"/><path fill="#a6a29f" d="M348.6 953.3l-227.3 34.6 150.2-127z"/><path fill="#000003" d="M263.8 495l-27 50 61.7 119.4z"/><path fill="#c0bebb" d="M71.3 949.4l131-269.6-219.6-73.2z"/><path d="M310 926.3l38.6 38.5-38.5-92.4z"/><path fill="#202029" d="M152.1 364l81-23.1 3.8 46.2z"/><path fill="#d3d0cc" d="M152.1 121.3l185 200.3-269.7 50z"/><path d="M63.6 1007.2L36.6 857l-7.7 77z"/><path fill="#26252a" d="M256.1 383.2l-69.3 92.5 88.6-19.3z"/></g></svg>
