<svg xmlns="http://www.w3.org/2000/svg" viewBox="0 0 64 64">
  <path fill="#FFF" d="M32.0048546.06149178C49.6538862.06068268 63.9643995 14.3699014 63.9643995 32.0194185c0 17.6519443-14.3105133 31.961163-31.9595449 31.961163-17.6514589 0-31.95954487-14.3092187-31.95954487-31.961163 0-7.9538434 2.90625914-15.2294079 7.71488828-20.8225675-.43041383-.6196271-.6829793-1.37294927-.6829793-2.18506845 0-2.11984829 1.7169153-3.83676359 3.83514539-3.83676359.9321995 0 1.7861674.33217094 2.4504409.88443057C18.6096633 2.28460665 25.0476674.06149178 32.0048546.06149178Zm0 1.91724905c-6.5384877 0-12.5890151 2.08878985-17.5207522 5.63546508.1706215.43264382.2634071.90349073.2634071 1.39595844 0 2.05360305-1.6097661 3.72906285-3.6376348 3.83177365l-.1958924.0049899c-.6110623 0-1.18864398-.1427299-1.70127241-.3966202-4.51881469 5.2563445-7.249342 12.0942668-7.249342 19.5699199 0 16.592182 13.44970921 30.0431049 30.04148671 30.0431049s30.0406776-13.451732 30.0406776-30.043914c0-16.5905639-13.4497092-30.04067767-30.0406776-30.04067767Zm.3835146 16.03268777c.2993678.1917572.3770417 1.3770923.0404551 1.6101138-.2427307.1699115-.7807838.079292-1.1003793.079292-1.0534513 0-1.7614159-.0323641-2.8901138 0-.4854614.0137547-.6278634.0064728-.6917825.4312516-.055019.356005-.0485462 1.2889001.1213653 1.4547661.2427308.2346397 1.7735525.1173198 2.2816688.1173198.3600506 0 .7654109.0080911 1.1796713 0 .1780025-.0024273.4369153-.008091.5712263-.008091.7330468.0016182.6958281.3276865.6958281 1.2185082 0 2.5608091.0356005 5.1572187.0356005 7.7067004l-.0004924.428096c-.0029179.3785457-.0178963.7234774-.0885089.8082125-.0809102.0995196-.2831858.1375474-.5153982.1496839h-.008091c-.094665.0040455-.18933.0056637-.2831859.0048546l-.079292.0016182c-.3721871 0-.4530974-.0145638-.5801264-.0687737-.0728193-.0323641-.1294564-.071201-.1569659-.1593931-.0307459-.0938559-.0485462-.1925664-.0534008-.2912769-.0137547-.1877118-.0194184-1.0841972-.024273-1.5696587-.0161821-1.936182.0121365-3.4144121-.0064729-5.4776232-.0024273-.2799495.0129457-.5420986-.0485461-.7686473-.0728192-.2621492-.3616688-.2912769-.6149178-.2945133h-.102756c-.2750948 0-.5064981.0161821-.6149179.1237927-.1723388.173957-.118938 1.6877876-.118938 2.085866 0 1.1990897.0323641 3.5098862.0323641 4.7575221 0 .6772187.0283186 1.3301644-.071201 1.493603-.0679646.1108471-.2475854.1173199-.8576486.1148926v-.0024273l-.2519536-.0000827c-.3179754-.0015757-.3856191-.015658-.4657202-.1229009-.1116561-.1513021-.1237927-.5518078-.1237927-.9725411.0048546-2.1384576.0080911-4.0794943-.008091-6.3223261-.0016182-.386751.0428824-.8495576-.0445006-.9830595-.1084197-.1602022-1.161062-.2063211-1.2864728-.0105183-.0970923.1634387-.0954741.3721871-.0987105 1.9337547-.0048547 1.9013907-.0226549 3.4492036 0 5.4209861.0048546.3673325.0380278.7136284-.1173199.9118584-.1399747.1780026-.4668521.149684-.8188116.1480658-.4150695-.0024273-.6019722-.0121366-.7233376-.1901391-.1213653-.1747661-.0776738-.5210619-.0776738-.9951959 0-1.0542605-.0121365-2.0874842-.0097092-3.1433629.0024273-.7735019-.0040455-1.422402-.0040455-2.1522124 0-1.3309734.0202275-1.7258154-.1148926-1.9458912-.0865739-.1407839-.2508217-.1537295-.9442225-.1359292-.2670038.0064728-.3171681.0776738-.3171681.2831858-.0016182 1.2905183.0016182 2.7994943.0016182 4.0762579 0 .9142857-.0210367 2.1894311 0 3.2064728.0032364.2378761.008091.5404804-.0809103.7468015-.142402.323641-.8689759.3883692-1.3940834.2508218-.0930468-.0242731-.2645765-.0760556-.3268774-.1585841-.1278381-.173957-.0809102-.7233375-.079292-1.21689.0024273-2.2452592.0404551-4.0835398.0404551-6.4032364l-.0040455-.0032364c0-.7484197-.079292-1.8560809.3042225-2.3043237.2022756-.2346397.6254362-.1634386 2.1797219-.1699115.4708976-.0024273 1.1052339.0032364 1.6424779.0064729.1909481 0 .4611883-.0097093.5566624-.0857649.1780025-.1407838.2241214-1.0008597.1634387-1.4523388-.0606827-.4401517-.1456384-.4450063-.6521365-.4717067-.5137801-.0267004-1.2921366 0-1.7905437 0-.8228571 0-1.9823008.142402-2.2800505-.1197472-.1480658-.1278381-.1359292-.3916055-.1213654-.7443742.008091-.1650569-.0323641-.3535777 0-.4717067.0024273-.0121365.1569659-.2475853.2022756-.2750948.1966119-.12622.7338559-.079292 1.2621998-.079292h7.980177c.4717067 0 .8964854-.0590645 1.3447281-.0404551.0485462.0040455.2718585-.0461189.4069786.0404551Zm-23.80783823-.0356005h6.51651073c.1504931-.0080911.6448546-.0404552.7459924.0930467.0501644.0663464.0671555.0890013.086574.1440203.1246018.3543868.1213654 1.2597724-.1593932 1.4175474-.1763843.0970923-.5323894.0339823-.8333755.0388369-.2734766.0032364-.6375726-.0404551-.7945385.0776738-.2613401.197421-.1602023 1.3641467-.1602023 2.1659672 0 2.3237421-.0453097 4.6733754.0404551 6.811024.0161821.4005057-.0776738 1.0955246.0792921 1.3002275.1407838.1844754.4636156.1585841.7945385.1585841l-.0008091-.0008091c.560708 0 .9304678-.1480657 1.0720607.3155499.1019469.3268774.0809102 1.1392162-.118938 1.3366372-.2993679.2993679-1.611732.1585841-2.2654868.1585841H8.73830594c-.51944374 0-1.99686473.1076106-2.2234134-.157775-.12136536-.1375474-.05906447-.8900126-.06230088-1.2929456 0-.0566372.00323641-.1513022.06149178-.220885.04045512-.0598736.10518331-.1011378.17800253-.1132743.14968394-.0356005.5073072-.0186094.774311-.0242731.24273072-.008091.51297092.0161821.75570164-.0809102.03074589-.0113275.16505689-.0849558.16020227-.078483.09547409-.1351201.06958281-.8414665.07929204-1.2217446.06230089-2.615019 0-5.0795449 0-7.7932743 0-.4045512.05340076-1.0680152-.07929204-1.2201265-.24677623-.2831858-1.49522123.0485462-1.7881163-.2386852-.12783818-.1213653-.12298357-.3721871-.11974716-.7063464.00161821-.2103666-.03640961-.4369153.04045512-.5922629.00809103-.0178003.02831859-.0525917.03560051-.0679646.00647282-.0161821.03074589-.0364096.04369153-.0501644.21683944-.2427307 1.34634639-.1577749 1.98634639-.1577749Zm2.05188373 1.9305183c-.0987105 0-.2071302.0145638-.2459672.0525917-.0469279.0453097-.0768647.1035651-.0970923.2152212-.0186093.2524399-.0137547.6343363-.0137547.9571681v4.1426043c0 1.6303414-.0064728 2.5972187.0364096 4.1021492.0186094.6027813-.0347914 1.122225.1132744 1.2597725.1780025.1634386 1.4321112.1537294 1.6182048-.0809103.1391656-.1763843.1132743-.7281922.1132743-1.2201264v-6.7414412c0-.5364349.1310746-2.3350696-.1132743-2.5988369l-.0008091.0008091c-.1682933-.1860936-1.2136537-.094665-1.4102655-.0890013ZM27.6583565 5.34978508c.3503414.34144122.1359292 1.81077118.1229836 2.43054362-.0048546.28318584 0 .84955752 0 1.29051833 0 .45309734-.0703919 1.02189637.0809102 1.21527177.0501644.0647282.181239.0914286.2831859.1189381.3867509.0970923 1.3431099.0647282 1.8706447.0388369.2799494-.016182.5218711-.0267004.6068268-.1181289.1537295-.165866.0809103-.6569912.0809103-1.21365365 0-.98548672-.0566372-2.09395701 0-3.17329962.0113274-.19418458.0186093-.42396966.024273-.54614412.0048546-.11651075.1068015-.14563843.2144122-.16020228.2589127-.03236409.5178255-.04530973.7767383-.03802781.2047029.00242731.3762326-.00809102.5283438.04045512.1294564.03802781.2872314.12379267.3268774.19418458.1375474.25567636.0388369 1.16753476.0388369 1.68293299h.0016182c0 1.50493047.0647282 2.66194691 0 4.27206069-.0129456.3301138-.0291277.5364349-.1618205.663464-.1941845.1885208-.7136283.158584-1.2986093.158584-1.6505689 0-2.5057901-.0404551-4.3473072-.0404551-1.3487737 0-2.8690771.0404551-4.3448799.0404551-.6230089 0-1.0696334-.008091-1.2201264-.2346397-.1602023-.2443489-.0809103-1.2233628-.0809103-1.6068773V6.21390645c0-.32040455-.0323641-.65780026.0404551-.78482933.0485462-.08333755.2694311-.17476612.4069786-.19580278h.0809102c.4223514-.08091024 1.114134-.07767383 1.3002276.19418457.1399747.20874842.0809102.7411378.0809102 1.177244v2.50659924c0 .39322377-.071201 1.00814155.0404551 1.17562575.1650569.2483945 1.5615676.1885209 2.1522124.1569659.134311-.008091.2160303-.016182.3260683-.0388369.1173198-.0267004.2346397-.0307459.2831858-.079292.1877118-.1877118.102756-.68530978.0809102-1.17481673-.0469279-1.09471555 0-1.51868521 0-2.58589128l-.0042441-.31565649c-.006464-.36431916-.0061843-.70057613.1272277-.8591602.2047029-.24434892 1.3026549-.30988622 1.5817952-.04045512Z"/>
</svg>
