<svg xmlns="http://www.w3.org/2000/svg" viewBox="0 0 1000 666"><path fill="#74784d" d="M0 0h1000v664H0z"/><g fill-opacity=".5"><path fill="#fcffff" d="M37.1-60.5l-97.6 246L486.3 56.6z"/><path fill="#fffaff" d="M162.1 408.2l277.4-82 484.3 386.7z"/><path d="M1060.5 259.8l-27.3-293-507.8 277.3z"/><path fill="#201e03" d="M37.1 228.5L771.5 2 619 255.9z"/><path fill="#ffe552" d="M783.2 400.4l-336-23.4 226.6-125z"/><path fill="#2f2d07" d="M548.8 392.6l457 35.1-7.8 297z"/><path fill="#eff" d="M177.7 170l62.5-230.5L-2 87.9z"/><path fill="#faffff" d="M259.8-60.5l191.4 89.8-11.7 101.6z"/><path fill="#dfeeff" d="M752 173.8l7.8-136.7 85.9-7.8z"/><path fill="#556b0f" d="M701.2 720.7l359.3-628.9V666z"/><path fill="#fff" d="M775.4 623L537 420l-140.6 70.2z"/><path fill="#3b560a" d="M615.2 552.7l-66.4 172-253.9-211z"/><path fill="#ffc8c4" d="M357.4 545l-11.7-250-132.8 35z"/><path fill="#516a13" d="M224.6 724.6L-60.5 572.3 216.8 80z"/><path fill="#ffdc78" d="M662.1 244.1l-39 277.4 89.8-183.6z"/><path fill="#324b21" d="M302.7 60.5l-85.9 7.9L357.4-41z"/><path fill="#231600" d="M478.5 119.1l-39-179.6 125 15.6z"/><path fill="#0f001a" d="M689.5 517.6l156.2-39L662.1 369z"/><path fill="#f6ffff" d="M787.1 111.3L670 107.4l4 31.3z"/><path fill="#2c2312" d="M630.9 337.9l62.5-398.4-179.7 253.9z"/></g></svg>