<svg xmlns="http://www.w3.org/2000/svg" viewBox="0 0 1052 800"><path fill="#c9b9b7" d="M0 0h1052v797H0z"/><g fill-opacity=".5"><path fill="#47652e" d="M647.2 663.7l90.4-291.8-349.3-4.1z"/><path fill="#2a4875" d="M959.5 556.8L598 610.2 1029.4 787z"/><path fill="#a7000b" d="M704.8 113L462.3-63.7l608.2 172.6z"/><path fill="#af061e" d="M589.7 861l-641-148 254.7-61.7z"/><path fill="#fff" d="M626.7 421.2L133.6 680.1h419.1z"/><path fill="#f6ffff" d="M104.8 84.2l743.8 242.5-756.1 53.4z"/><path fill="#003628" d="M302 261L207.5 59.5l82.2-4.1z"/><path fill="#326471" d="M700.6 593.8L335 708.8l197.3 16.5z"/><path fill="#fff" d="M310.3-63.7L47.3 39l538.3 24.7z"/><path fill="#b5127d" d="M117.1 622.6l152-143.9-28.7 209.6z"/><path d="M507.5 503.4l-111-131.5 106.9 28.8z"/><path fill="#e6ffff" d="M791 593.8l156.2 24.7L963.6 113z"/><path fill="#fff" d="M-63.7 433.5L63.7 372 76-22.6z"/><path fill="#bc1b62" d="M626.7 166.4l254.8-32.8-349.3 176.7z"/><path fill="#c70014" d="M1066.4 335l-98.6 365.6L1115.7 450z"/><path fill="#fff" d="M589.7 552.7L166.4 417.1l267.1 275.3zm382.2 41.1l143.8-353.4L1013 150z"/><path fill="#080000" d="M335 322.6l24.6 78-86.3-69.8z"/><path fill="#f5ffff" d="M-63.7 470.5l230.1 4.1L121.2 676z"/><path fill="#fff" d="M437.6 721.2L561 860.9l402.7-102.7z"/></g></svg>