<svg xmlns="http://www.w3.org/2000/svg" viewBox="0 0 1000 657"><path fill="#433f39" d="M0 0h1000v656H0z"/><g fill-opacity=".5"><path fill="#c2b39e" d="M349.6 341.8l711-367.2-703.2 93.8z"/><path d="M29.3 56.6l-89.8 660.2 500-336z"/><path fill="#fff9e8" d="M607.4 716.8l93.8-160.2-156.3-27.3z"/><path fill="#83806f" d="M736.3 533.2L541-60.5l511.7 132.8z"/><path d="M400.4-60.5L99.6 716.8l-160.1-543zM502 220.7l226.5 109.4-382.8 386.7z"/><path fill="#ceffff" d="M209 627l46.9-66.5-74.3-82z"/><path d="M541 517.6l519.5-23.5-70.3 125z"/><path fill="#ecffff" d="M412.1 541l-62.5 11.7 74.2-101.5z"/><path fill="#9aa190" d="M-60.5 130.9L162 72.3 115.2-60.5z"/><path fill="#bf9647" d="M505.9 607.4l398.4 109.4 156.2-117.2z"/><path fill="#969b9b" d="M666 478.5L849.6 502l-23.4-261.8z"/><path fill="#e0ccc1" d="M431.6 56.6l23.5 257.9 82-218.8z"/><path fill="#d6b7ba" d="M623 552.7l-113.2 86 136.7-207z"/><path fill="#000004" d="M181.6 654.3L420 685.5l-58.6-175.7z"/><path fill="#afd4ff" d="M326.2 482.4l-23.5 97.7L283.2 459z"/><path fill="#62543d" d="M642.6 45l410.1 328-58.6-433.5z"/><path d="M591.8 490.2l468.7 27.4-312.5 82z"/><path fill="#010000" d="M216.8 212.9l238.3-211-304.7-62.4z"/><path fill="#4b4d43" d="M611.3 373l324.2 140.7-257.8-230.5z"/></g></svg>